<?xml version="1.0" encoding="UTF-8"?>
<svg width="123px" height="123px" viewBox="0 0 123 123" version="1.1" xmlns="http://www.w3.org/2000/svg" xmlns:xlink="http://www.w3.org/1999/xlink">
    <!-- Generator: Sketch 43.2 (39069) - http://www.bohemiancoding.com/sketch -->
    <title>icon-disabled</title>
    <desc>Created with Sketch.</desc>
    <defs></defs>
    <g id="Page-1" stroke="none" stroke-width="1" fill="none" fill-rule="evenodd">
        <g id="icon-disabled">
            <polygon id="Shape" fill="#EFEFEF" fill-rule="nonzero" points="120 121 120 3 2 3"></polygon>
            <path d="M3,3 C2.45,3 2.32,3.32 2.71,3.71 L119.29,120.29 C119.68,120.68 120,120.55 120,120 L120,4 C120,3.44771525 119.552285,3 119,3 L3,3 Z" id="Shape" stroke="#898989" stroke-width="4"></path>
            <g id="Group" opacity="0.9" transform="translate(68.000000, 70.000000)">
                <path d="M0.17,0.95 L16.08,0.95" id="Shape" stroke="#F7F8F8" stroke-width="16"></path>
                <path d="M0.17,0.95 L16.08,0.95" id="Shape" stroke="#727171" stroke-width="6"></path>
            </g>
            <g id="Group" opacity="0.9" transform="translate(12.000000, 50.000000)">
                <path d="M64.11,39.34 C64.11,41.54 62.99,43.34 61.6,43.34 L2.85,43.34 C1.46,43.34 0.34,41.56 0.34,39.34 L0.34,4.19 C0.34,1.99 1.47,0.19 2.85,0.19 L61.6,0.19 C62.99,0.19 64.11,1.97 64.11,4.19 L64.11,39.34 Z" id="Shape" stroke="#F7F8F8" stroke-width="16"></path>
                <path d="M64.11,39.34 C64.11,41.54 62.99,43.34 61.6,43.34 L2.85,43.34 C1.46,43.34 0.34,41.56 0.34,39.34 L0.34,4.19 C0.34,1.99 1.47,0.19 2.85,0.19 L61.6,0.19 C62.99,0.19 64.11,1.97 64.11,4.19 L64.11,39.34 Z" id="Shape" stroke="#727171" stroke-width="6"></path>
            </g>
            <g id="Group" opacity="0.9" transform="translate(36.000000, 27.000000)">
                <path d="M48.08,43.95 L61.71,43.95 C62.5287318,43.9343858 63.3070461,43.591267 63.8708522,42.9973913 C64.4346582,42.4035156 64.7369097,41.6084384 64.71,40.79 L64.71,4 C64.7369097,3.18156159 64.4346582,2.38648439 63.8708522,1.79260871 C63.3070461,1.19873302 62.5287318,0.855614217 61.71,0.84 L3.85,0.84 C3.0312682,0.855614217 2.25295386,1.19873302 1.68914784,1.79260871 C1.12534181,2.38648439 0.823090316,3.18156159 0.85,4 L0.85,40.8 C0.823090316,41.6184384 1.12534181,42.4135156 1.68914784,43.0073913 C2.25295386,43.601267 3.0312682,43.9443858 3.85,43.96 L32.17,43.96" id="Shape" stroke="#F7F8F8" stroke-width="16"></path>
                <path d="M48.08,43.95 L61.71,43.95 C62.5287318,43.9343858 63.3070461,43.591267 63.8708522,42.9973913 C64.4346582,42.4035156 64.7369097,41.6084384 64.71,40.79 L64.71,4 C64.7369097,3.18156159 64.4346582,2.38648439 63.8708522,1.79260871 C63.3070461,1.19873302 62.5287318,0.855614217 61.71,0.84 L3.85,0.84 C3.0312682,0.855614217 2.25295386,1.19873302 1.68914784,1.79260871 C1.12534181,2.38648439 0.823090316,3.18156159 0.85,4 L0.85,40.8 C0.823090316,41.6184384 1.12534181,42.4135156 1.68914784,43.0073913 C2.25295386,43.601267 3.0312682,43.9443858 3.85,43.96 L32.17,43.96" id="Shape" stroke="#727171" stroke-width="6"></path>
            </g>
        </g>
    </g>
</svg>