<?xml version="1.0" encoding="UTF-8"?>
<svg width="279px" height="34px" viewBox="0 0 279 34" version="1.1" xmlns="http://www.w3.org/2000/svg" xmlns:xlink="http://www.w3.org/1999/xlink">
    <!-- Generator: Sketch 43.2 (39069) - http://www.bohemiancoding.com/sketch -->
    <title>logo</title>
    <desc>Created with Sketch.</desc>
    <defs></defs>
    <g id="Page-1" stroke="none" stroke-width="1" fill="none" fill-rule="evenodd">
        <g id="logo" stroke="#727171" fill-rule="nonzero">
            <polygon id="Shape" fill="#727171" points="2.55 2 2.55 30.13 21.81 30.13 21.81 30.51 2 30.51 2 2"></polygon>
            <path d="M32,5.55 L32,2 L32.53,2 L32.53,5.55 L32,5.55 Z M32,31.3 L32,11.12 L32.53,11.12 L32.53,31.3 L32,31.3 Z" id="Shape" fill="#727171"></path>
            <path d="M44.48,14.56 L44.96,14.56 C46.0267322,13.1845214 47.3952829,12.072574 48.96,11.31 C50.5479858,10.4697965 52.3135555,10.0206904 54.11,10 C57.01,10 59.0966667,10.6433333 60.37,11.93 C61.6433333,13.2166667 62.28,15.42 62.28,18.54 L62.28,30.6 L61.8,30.6 L61.8,18.54 C61.8,15.3733333 61.18,13.2266667 59.94,12.1 C58.7,10.9733333 56.76,10.4133333 54.12,10.42 C51.7786725,10.4480522 49.5025534,11.195122 47.6,12.56 C45.52,13.9933333 44.48,15.4566667 44.48,16.95 L44.48,30.6 L44,30.6 L44,10.42 L44.48,10.42 L44.48,14.56 Z" id="Shape" fill="#727171"></path>
            <polygon id="Shape" fill="#727171" points="71.53 20.44 71.96 20.44 87.71 11.12 88.58 11.12 72.1 20.82 88.83 31.3 88.06 31.3 71.96 21.17 71.53 21.17 71.53 31.3 71 31.3 71 2 71.53 2"></polygon>
            <path d="M121.94,14.6 L121.94,14.99 C128.193333,15.8166667 131.32,18.2266667 131.32,22.22 C131.32,27.76 126.453333,30.53 116.72,30.53 L110,30.53 L110,2 L116.19,2 C124.95,2 129.33,4.11333333 129.33,8.34 C129.336667,11.5333333 126.873333,13.62 121.94,14.6 Z M110.54,14.68 L116.73,14.68 C120.563333,14.68 123.536667,14.14 125.65,13.06 C127.563089,12.2731231 128.811375,10.4085947 128.81,8.34 C128.818106,7.79729442 128.754216,7.25590989 128.62,6.73 C128.420101,6.13275034 128.076732,5.5936614 127.62,5.16 C127.001795,4.5522209 126.27167,4.06999871 125.47,3.74 C124.281957,3.267667 123.038638,2.9484363 121.77,2.79 C119.921961,2.52642163 118.056661,2.40273683 116.19,2.42 L110.54,2.42 L110.54,14.68 Z M110.54,15.11 L110.54,30.13 L116.73,30.13 C121.496667,30.13 125.033333,29.4866667 127.34,28.2 C129.563708,27.0460514 130.911337,24.7023492 130.79,22.2 C130.79,17.46 126.103333,15.09 116.73,15.09 L110.54,15.11 Z" id="Shape" fill="#727171"></path>
            <polygon id="Shape" fill="#727171" points="141 31.3 141 2 141.53 2 141.53 31.3"></polygon>
            <path d="M168.854636,26.0033017 L168.374636,26.0033017 C167.438578,27.6042399 166.045726,28.8891456 164.374636,29.6933017 C162.447495,30.6018802 160.334541,31.0470732 158.204636,30.9933017 C156.318113,31.1042297 154.450691,30.5641247 152.914636,29.4633017 C151.64517,28.4519576 150.935388,26.8948951 151.004636,25.2733017 C150.993438,24.5913552 151.108718,23.9132386 151.344636,23.2733017 C151.632471,22.5742116 152.069284,21.946293 152.624636,21.4333017 C153.336838,20.7571657 154.162857,20.212128 155.064636,19.8233017 C156.395521,19.2981667 157.78597,18.9387995 159.204636,18.7533017 C161.172293,18.4415213 163.162521,18.2943448 165.154636,18.3133017 L168.874636,18.3133017 L168.874636,16.1433017 C168.874636,14.056635 168.294636,12.5799684 167.134636,11.7133017 C165.974636,10.846635 163.997969,10.416635 161.204636,10.4233017 C158.18684,10.3756693 155.182247,10.8319348 152.314636,11.7733017 L152.314636,11.3133017 C155.187761,10.3993275 158.189998,9.95692814 161.204636,10.0033017 C164.197969,10.0033017 166.307969,10.4733017 167.534636,11.4133017 C168.761303,12.3533017 169.374636,13.9333017 169.374636,16.1533017 L169.374636,30.6033017 L168.894636,30.6033017 L168.854636,26.0033017 Z M168.854636,18.7333017 L165.134636,18.7333017 C156.081303,18.7333017 151.554636,20.9099684 151.554636,25.2633017 C151.489424,26.7688885 152.142523,28.2160975 153.314636,29.1633017 C154.729514,30.1934384 156.457274,30.7022264 158.204636,30.6033017 C160.926754,30.70627 163.605231,29.8967434 165.814636,28.3033017 C167.716249,26.979387 168.839514,24.8002526 168.814636,22.4833017 L168.854636,18.7333017 Z" id="Shape" fill="#727171"></path>
            <path d="M178.43,14.56 L178.91,14.56 C179.976475,13.1842701 181.345089,12.0722709 182.91,11.31 C184.497846,10.4694341 186.263505,10.0203053 188.06,10 C190.96,10 193.046667,10.6433333 194.32,11.93 C195.593333,13.2166667 196.253333,15.42 196.3,18.54 L196.3,30.6 L195.82,30.6 L195.82,18.54 C195.82,15.3733333 195.2,13.2266667 193.96,12.1 C192.72,10.9733333 190.78,10.4133333 188.14,10.42 C185.798673,10.4480522 183.522553,11.195122 181.62,12.56 C179.526667,13.9933333 178.48,15.4566667 178.48,16.95 L178.48,30.6 L178,30.6 L178,10.42 L178.48,10.42 L178.43,14.56 Z" id="Shape" fill="#727171"></path>
            <polygon id="Shape" fill="#727171" points="205.52 20.44 205.95 20.44 221.7 11.12 222.57 11.12 206.09 20.82 222.82 31.3 222.05 31.3 205.96 21.17 205.53 21.17 205.53 31.3 205 31.3 205 2 205.53 2"></polygon>
            <path d="M240.401912,30.6201566 C242.913168,30.6548637 245.412066,30.2626146 247.791912,29.4601566 L247.791912,29.9201566 C245.397186,30.6509842 242.90563,31.0151088 240.401912,31.0001566 C232.795246,31.0001566 228.995246,27.5068232 229.001912,20.5201566 C228.9764,19.0091162 229.206301,17.5046206 229.681912,16.0701566 C230.037405,14.9514747 230.611887,13.9146876 231.371912,13.0201566 C232.062125,12.2603893 232.898909,11.6481085 233.831912,11.2201566 C234.738916,10.7867144 235.696244,10.4676051 236.681912,10.2701566 C237.654362,10.0861203 238.642212,9.99570691 239.631912,10.0001566 C246.071912,10.0001566 249.295246,13.3768232 249.301912,20.1301566 L249.301912,20.3201566 L229.531912,20.3201566 C229.531912,27.1868232 233.155246,30.6201566 240.401912,30.6201566 Z M229.531912,19.9101566 L248.811912,19.9101566 C248.685246,13.5968232 245.625246,10.4401566 239.631912,10.4401566 C233.158579,10.4401566 229.791912,13.5968232 229.531912,19.9101566 Z" id="Shape" fill="#727171"></path>
            <path d="M257.46,16.804728 L257.94,16.804728 C258.955717,14.9332018 260.538025,13.4314096 262.46,12.514728 C264.68616,11.4615746 267.128032,10.9444321 269.59,11.004728 L270.36,11.004728 L270.36,11.394728 L269.59,11.394728 C266.47762,11.2748325 263.414745,12.2007361 260.89,14.024728 C258.718717,15.5642445 257.443629,18.0732886 257.48,20.734728 L257.48,31.204728 L257,31.204728 L257,11.024728 L257.48,11.024728 L257.46,16.804728 Z" id="Shape" fill="#727171"></path>
            <polygon id="Shape" stroke-width="1.5" fill="#E5C0D5" points="87 7 94.12 7.14 90.44 13.24"></polygon>
            <polygon id="Shape" stroke-width="1.5" fill="#A1D7E0" points="270 7 276.28 10.37 270.22 14.13"></polygon>
        </g>
    </g>
</svg>